<svg width="47" height="47" viewBox="0 0 47 47" fill="none" xmlns="http://www.w3.org/2000/svg">
<path d="M23.5 0C10.5241 0 0 10.5221 0 23.5C0 33.8831 6.73275 42.6916 16.072 45.7995C17.2451 46.0169 17.625 45.2884 17.625 44.6696V40.2946C11.0881 41.7164 9.72704 37.5216 9.72704 37.5216C8.65779 34.8054 7.11658 34.0828 7.11658 34.0828C4.98396 32.6239 7.27913 32.6552 7.27913 32.6552C9.63892 32.8197 10.8805 35.0776 10.8805 35.0776C12.9759 38.6692 16.3775 37.6313 17.719 37.0301C17.9285 35.5124 18.5376 34.4745 19.2113 33.8889C13.9923 33.2916 8.50504 31.2765 8.50504 22.2741C8.50504 19.7067 9.4235 17.6113 10.9255 15.9663C10.6827 15.3729 9.87783 12.9818 11.1547 9.74662C11.1547 9.74662 13.1287 9.11603 17.6191 12.1554C19.4932 11.6344 21.5025 11.374 23.5 11.3642C25.4975 11.374 27.5087 11.6344 29.3867 12.1554C33.8733 9.11603 35.8434 9.74662 35.8434 9.74662C37.1222 12.9837 36.3173 15.3749 36.0745 15.9663C37.5824 17.6113 38.493 19.7087 38.493 22.2741C38.493 31.3 32.996 33.2877 27.7633 33.8694C28.6054 34.5979 29.375 36.0274 29.375 38.2208V44.6696C29.375 45.2943 29.751 46.0286 30.9436 45.7976C40.2751 42.6858 47 33.8791 47 23.5C47 10.5221 36.4779 0 23.5 0Z" fill="#E5E5E5"/>
</svg>
